<?xml version="1.0" encoding="UTF-8" standalone="no"?>
<svg
   xmlns:dc="http://purl.org/dc/elements/1.1/"
   xmlns:cc="http://creativecommons.org/ns#"
   xmlns:rdf="http://www.w3.org/1999/02/22-rdf-syntax-ns#"
   xmlns:svg="http://www.w3.org/2000/svg"
   xmlns="http://www.w3.org/2000/svg"
   viewBox="0 0 576 384"
   height="384"
   width="576"
   xml:space="preserve"
   id="svg2"
   version="1.1"><metadata
     id="metadata8"><rdf:RDF><cc:Work
         rdf:about=""><dc:format>image/svg+xml</dc:format><dc:type
           rdf:resource="http://purl.org/dc/dcmitype/StillImage" /></cc:Work></rdf:RDF></metadata><defs
     id="defs6"><clipPath
       id="clipPath258"
       clipPathUnits="userSpaceOnUse"><path
         id="path256"
         d="M 540,360 H 3888 V 2534 H 540 Z" /></clipPath></defs><g
     transform="matrix(1.3333333,0,0,-1.3333333,0,384)"
     id="g10"><g
       transform="scale(0.1)"
       id="g12"><path
         id="path14"
         style="fill:#ffffff;fill-opacity:1;fill-rule:nonzero;stroke:none"
         d="M 0,0 H 4320 V 2880 H 0 Z" /><path
         id="path16"
         style="fill:#ffffff;fill-opacity:1;fill-rule:nonzero;stroke:none"
         d="M 540,360 H 3888 V 2534.4 H 540 Z" /><path
         id="path18"
         style="fill:#000000;fill-opacity:1;fill-rule:nonzero;stroke:none"
         d="M 692.184,360 V 325" /><path
         id="path20"
         style="fill:none;stroke:#000000;stroke-width:8;stroke-linecap:butt;stroke-linejoin:round;stroke-miterlimit:10;stroke-dasharray:none;stroke-opacity:1"
         d="M 692.184,360 V 325" /><g
         transform="scale(10)"
         id="g22"><text
           id="text26"
           style="font-variant:normal;font-weight:normal;font-size:10px;font-family:Arial;-inkscape-font-specification:Arial;writing-mode:lr-tb;fill:#000000;fill-opacity:1;fill-rule:nonzero;stroke:none"
           transform="matrix(1,0,0,-1,60.2184,21.0547)"><tspan
             id="tspan24"
             y="0"
             x="0 6.362112">10</tspan></text>
<text
           id="text30"
           style="font-variant:normal;font-weight:normal;font-size:7px;font-family:Arial;-inkscape-font-specification:Arial;writing-mode:lr-tb;fill:#000000;fill-opacity:1;fill-rule:nonzero;stroke:none"
           transform="matrix(1,0,0,-1,73.0387,24.88283)"><tspan
             id="tspan28"
             y="0"
             x="0">3</tspan></text>
</g><path
         id="path32"
         style="fill:#000000;fill-opacity:1;fill-rule:nonzero;stroke:none"
         d="M 1706.73,360 V 325" /><path
         id="path34"
         style="fill:none;stroke:#000000;stroke-width:8;stroke-linecap:butt;stroke-linejoin:round;stroke-miterlimit:10;stroke-dasharray:none;stroke-opacity:1"
         d="M 1706.73,360 V 325" /><g
         transform="scale(10)"
         id="g36"><text
           id="text40"
           style="font-variant:normal;font-weight:normal;font-size:10px;font-family:Arial;-inkscape-font-specification:Arial;writing-mode:lr-tb;fill:#000000;fill-opacity:1;fill-rule:nonzero;stroke:none"
           transform="matrix(1,0,0,-1,161.673,21.1422)"><tspan
             id="tspan38"
             y="0"
             x="0 6.3625026">10</tspan></text>
<text
           id="text44"
           style="font-variant:normal;font-weight:normal;font-size:7px;font-family:Arial;-inkscape-font-specification:Arial;writing-mode:lr-tb;fill:#000000;fill-opacity:1;fill-rule:nonzero;stroke:none"
           transform="matrix(1,0,0,-1,174.4933,24.97033)"><tspan
             id="tspan42"
             y="0"
             x="0">4</tspan></text>
</g><path
         id="path46"
         style="fill:#000000;fill-opacity:1;fill-rule:nonzero;stroke:none"
         d="M 2721.27,360 V 325" /><path
         id="path48"
         style="fill:none;stroke:#000000;stroke-width:8;stroke-linecap:butt;stroke-linejoin:round;stroke-miterlimit:10;stroke-dasharray:none;stroke-opacity:1"
         d="M 2721.27,360 V 325" /><g
         transform="scale(10)"
         id="g50"><text
           id="text54"
           style="font-variant:normal;font-weight:normal;font-size:10px;font-family:Arial;-inkscape-font-specification:Arial;writing-mode:lr-tb;fill:#000000;fill-opacity:1;fill-rule:nonzero;stroke:none"
           transform="matrix(1,0,0,-1,263.127,21.1422)"><tspan
             id="tspan52"
             y="0"
             x="0 6.3620996">10</tspan></text>
<text
           id="text58"
           style="font-variant:normal;font-weight:normal;font-size:7px;font-family:Arial;-inkscape-font-specification:Arial;writing-mode:lr-tb;fill:#000000;fill-opacity:1;fill-rule:nonzero;stroke:none"
           transform="matrix(1,0,0,-1,275.9473,24.97033)"><tspan
             id="tspan56"
             y="0"
             x="0">5</tspan></text>
</g><path
         id="path60"
         style="fill:#000000;fill-opacity:1;fill-rule:nonzero;stroke:none"
         d="M 3735.82,360 V 325" /><path
         id="path62"
         style="fill:none;stroke:#000000;stroke-width:8;stroke-linecap:butt;stroke-linejoin:round;stroke-miterlimit:10;stroke-dasharray:none;stroke-opacity:1"
         d="M 3735.82,360 V 325" /><g
         transform="scale(10)"
         id="g64"><text
           id="text68"
           style="font-variant:normal;font-weight:normal;font-size:10px;font-family:Arial;-inkscape-font-specification:Arial;writing-mode:lr-tb;fill:#000000;fill-opacity:1;fill-rule:nonzero;stroke:none"
           transform="matrix(1,0,0,-1,364.582,21.0547)"><tspan
             id="tspan66"
             y="0"
             x="0 6.3624902">10</tspan></text>
<text
           id="text72"
           style="font-variant:normal;font-weight:normal;font-size:7px;font-family:Arial;-inkscape-font-specification:Arial;writing-mode:lr-tb;fill:#000000;fill-opacity:1;fill-rule:nonzero;stroke:none"
           transform="matrix(1,0,0,-1,377.4023,24.88283)"><tspan
             id="tspan70"
             y="0"
             x="0">6</tspan></text>
</g><path
         id="path74"
         style="fill:#000000;fill-opacity:1;fill-rule:nonzero;stroke:none"
         d="M 535.027,360 V 340" /><path
         id="path76"
         style="fill:none;stroke:#000000;stroke-width:6;stroke-linecap:butt;stroke-linejoin:round;stroke-miterlimit:10;stroke-dasharray:none;stroke-opacity:1"
         d="M 535.027,360 V 340" /><path
         id="path78"
         style="fill:#000000;fill-opacity:1;fill-rule:nonzero;stroke:none"
         d="M 593.863,360 V 340" /><path
         id="path80"
         style="fill:none;stroke:#000000;stroke-width:6;stroke-linecap:butt;stroke-linejoin:round;stroke-miterlimit:10;stroke-dasharray:none;stroke-opacity:1"
         d="M 593.863,360 V 340" /><path
         id="path82"
         style="fill:#000000;fill-opacity:1;fill-rule:nonzero;stroke:none"
         d="M 645.758,360 V 340" /><path
         id="path84"
         style="fill:none;stroke:#000000;stroke-width:6;stroke-linecap:butt;stroke-linejoin:round;stroke-miterlimit:10;stroke-dasharray:none;stroke-opacity:1"
         d="M 645.758,360 V 340" /><path
         id="path86"
         style="fill:#000000;fill-opacity:1;fill-rule:nonzero;stroke:none"
         d="M 997.59,360 V 340" /><path
         id="path88"
         style="fill:none;stroke:#000000;stroke-width:6;stroke-linecap:butt;stroke-linejoin:round;stroke-miterlimit:10;stroke-dasharray:none;stroke-opacity:1"
         d="M 997.59,360 V 340" /><path
         id="path90"
         style="fill:#000000;fill-opacity:1;fill-rule:nonzero;stroke:none"
         d="M 1176.24,360 V 340" /><path
         id="path92"
         style="fill:none;stroke:#000000;stroke-width:6;stroke-linecap:butt;stroke-linejoin:round;stroke-miterlimit:10;stroke-dasharray:none;stroke-opacity:1"
         d="M 1176.24,360 V 340" /><path
         id="path94"
         style="fill:#000000;fill-opacity:1;fill-rule:nonzero;stroke:none"
         d="M 1303,360 V 340" /><path
         id="path96"
         style="fill:none;stroke:#000000;stroke-width:6;stroke-linecap:butt;stroke-linejoin:round;stroke-miterlimit:10;stroke-dasharray:none;stroke-opacity:1"
         d="M 1303,360 V 340" /><path
         id="path98"
         style="fill:#000000;fill-opacity:1;fill-rule:nonzero;stroke:none"
         d="M 1401.32,360 V 340" /><path
         id="path100"
         style="fill:none;stroke:#000000;stroke-width:6;stroke-linecap:butt;stroke-linejoin:round;stroke-miterlimit:10;stroke-dasharray:none;stroke-opacity:1"
         d="M 1401.32,360 V 340" /><path
         id="path102"
         style="fill:#000000;fill-opacity:1;fill-rule:nonzero;stroke:none"
         d="M 1481.65,360 V 340" /><path
         id="path104"
         style="fill:none;stroke:#000000;stroke-width:6;stroke-linecap:butt;stroke-linejoin:round;stroke-miterlimit:10;stroke-dasharray:none;stroke-opacity:1"
         d="M 1481.65,360 V 340" /><path
         id="path106"
         style="fill:#000000;fill-opacity:1;fill-rule:nonzero;stroke:none"
         d="M 1549.57,360 V 340" /><path
         id="path108"
         style="fill:none;stroke:#000000;stroke-width:6;stroke-linecap:butt;stroke-linejoin:round;stroke-miterlimit:10;stroke-dasharray:none;stroke-opacity:1"
         d="M 1549.57,360 V 340" /><path
         id="path110"
         style="fill:#000000;fill-opacity:1;fill-rule:nonzero;stroke:none"
         d="M 1608.41,360 V 340" /><path
         id="path112"
         style="fill:none;stroke:#000000;stroke-width:6;stroke-linecap:butt;stroke-linejoin:round;stroke-miterlimit:10;stroke-dasharray:none;stroke-opacity:1"
         d="M 1608.41,360 V 340" /><path
         id="path114"
         style="fill:#000000;fill-opacity:1;fill-rule:nonzero;stroke:none"
         d="M 1660.3,360 V 340" /><path
         id="path116"
         style="fill:none;stroke:#000000;stroke-width:6;stroke-linecap:butt;stroke-linejoin:round;stroke-miterlimit:10;stroke-dasharray:none;stroke-opacity:1"
         d="M 1660.3,360 V 340" /><path
         id="path118"
         style="fill:#000000;fill-opacity:1;fill-rule:nonzero;stroke:none"
         d="M 2012.14,360 V 340" /><path
         id="path120"
         style="fill:none;stroke:#000000;stroke-width:6;stroke-linecap:butt;stroke-linejoin:round;stroke-miterlimit:10;stroke-dasharray:none;stroke-opacity:1"
         d="M 2012.14,360 V 340" /><path
         id="path122"
         style="fill:#000000;fill-opacity:1;fill-rule:nonzero;stroke:none"
         d="M 2190.79,360 V 340" /><path
         id="path124"
         style="fill:none;stroke:#000000;stroke-width:6;stroke-linecap:butt;stroke-linejoin:round;stroke-miterlimit:10;stroke-dasharray:none;stroke-opacity:1"
         d="M 2190.79,360 V 340" /><path
         id="path126"
         style="fill:#000000;fill-opacity:1;fill-rule:nonzero;stroke:none"
         d="M 2317.54,360 V 340" /><path
         id="path128"
         style="fill:none;stroke:#000000;stroke-width:6;stroke-linecap:butt;stroke-linejoin:round;stroke-miterlimit:10;stroke-dasharray:none;stroke-opacity:1"
         d="M 2317.54,360 V 340" /><path
         id="path130"
         style="fill:#000000;fill-opacity:1;fill-rule:nonzero;stroke:none"
         d="M 2415.86,360 V 340" /><path
         id="path132"
         style="fill:none;stroke:#000000;stroke-width:6;stroke-linecap:butt;stroke-linejoin:round;stroke-miterlimit:10;stroke-dasharray:none;stroke-opacity:1"
         d="M 2415.86,360 V 340" /><path
         id="path134"
         style="fill:#000000;fill-opacity:1;fill-rule:nonzero;stroke:none"
         d="M 2496.2,360 V 340" /><path
         id="path136"
         style="fill:none;stroke:#000000;stroke-width:6;stroke-linecap:butt;stroke-linejoin:round;stroke-miterlimit:10;stroke-dasharray:none;stroke-opacity:1"
         d="M 2496.2,360 V 340" /><path
         id="path138"
         style="fill:#000000;fill-opacity:1;fill-rule:nonzero;stroke:none"
         d="M 2564.12,360 V 340" /><path
         id="path140"
         style="fill:none;stroke:#000000;stroke-width:6;stroke-linecap:butt;stroke-linejoin:round;stroke-miterlimit:10;stroke-dasharray:none;stroke-opacity:1"
         d="M 2564.12,360 V 340" /><path
         id="path142"
         style="fill:#000000;fill-opacity:1;fill-rule:nonzero;stroke:none"
         d="M 2622.95,360 V 340" /><path
         id="path144"
         style="fill:none;stroke:#000000;stroke-width:6;stroke-linecap:butt;stroke-linejoin:round;stroke-miterlimit:10;stroke-dasharray:none;stroke-opacity:1"
         d="M 2622.95,360 V 340" /><path
         id="path146"
         style="fill:#000000;fill-opacity:1;fill-rule:nonzero;stroke:none"
         d="M 2674.85,360 V 340" /><path
         id="path148"
         style="fill:none;stroke:#000000;stroke-width:6;stroke-linecap:butt;stroke-linejoin:round;stroke-miterlimit:10;stroke-dasharray:none;stroke-opacity:1"
         d="M 2674.85,360 V 340" /><path
         id="path150"
         style="fill:#000000;fill-opacity:1;fill-rule:nonzero;stroke:none"
         d="M 3026.68,360 V 340" /><path
         id="path152"
         style="fill:none;stroke:#000000;stroke-width:6;stroke-linecap:butt;stroke-linejoin:round;stroke-miterlimit:10;stroke-dasharray:none;stroke-opacity:1"
         d="M 3026.68,360 V 340" /><path
         id="path154"
         style="fill:#000000;fill-opacity:1;fill-rule:nonzero;stroke:none"
         d="M 3205.33,360 V 340" /><path
         id="path156"
         style="fill:none;stroke:#000000;stroke-width:6;stroke-linecap:butt;stroke-linejoin:round;stroke-miterlimit:10;stroke-dasharray:none;stroke-opacity:1"
         d="M 3205.33,360 V 340" /><path
         id="path158"
         style="fill:#000000;fill-opacity:1;fill-rule:nonzero;stroke:none"
         d="M 3332.09,360 V 340" /><path
         id="path160"
         style="fill:none;stroke:#000000;stroke-width:6;stroke-linecap:butt;stroke-linejoin:round;stroke-miterlimit:10;stroke-dasharray:none;stroke-opacity:1"
         d="M 3332.09,360 V 340" /><path
         id="path162"
         style="fill:#000000;fill-opacity:1;fill-rule:nonzero;stroke:none"
         d="M 3430.41,360 V 340" /><path
         id="path164"
         style="fill:none;stroke:#000000;stroke-width:6;stroke-linecap:butt;stroke-linejoin:round;stroke-miterlimit:10;stroke-dasharray:none;stroke-opacity:1"
         d="M 3430.41,360 V 340" /><path
         id="path166"
         style="fill:#000000;fill-opacity:1;fill-rule:nonzero;stroke:none"
         d="M 3510.74,360 V 340" /><path
         id="path168"
         style="fill:none;stroke:#000000;stroke-width:6;stroke-linecap:butt;stroke-linejoin:round;stroke-miterlimit:10;stroke-dasharray:none;stroke-opacity:1"
         d="M 3510.74,360 V 340" /><path
         id="path170"
         style="fill:#000000;fill-opacity:1;fill-rule:nonzero;stroke:none"
         d="M 3578.66,360 V 340" /><path
         id="path172"
         style="fill:none;stroke:#000000;stroke-width:6;stroke-linecap:butt;stroke-linejoin:round;stroke-miterlimit:10;stroke-dasharray:none;stroke-opacity:1"
         d="M 3578.66,360 V 340" /><path
         id="path174"
         style="fill:#000000;fill-opacity:1;fill-rule:nonzero;stroke:none"
         d="M 3637.5,360 V 340" /><path
         id="path176"
         style="fill:none;stroke:#000000;stroke-width:6;stroke-linecap:butt;stroke-linejoin:round;stroke-miterlimit:10;stroke-dasharray:none;stroke-opacity:1"
         d="M 3637.5,360 V 340" /><path
         id="path178"
         style="fill:#000000;fill-opacity:1;fill-rule:nonzero;stroke:none"
         d="M 3689.4,360 V 340" /><path
         id="path180"
         style="fill:none;stroke:#000000;stroke-width:6;stroke-linecap:butt;stroke-linejoin:round;stroke-miterlimit:10;stroke-dasharray:none;stroke-opacity:1"
         d="M 3689.4,360 V 340" /><g
         transform="scale(10)"
         id="g182"><text
           id="text186"
           style="font-variant:normal;font-weight:normal;font-size:10px;font-family:Arial;-inkscape-font-specification:Arial;writing-mode:lr-tb;fill:#000000;fill-opacity:1;fill-rule:nonzero;stroke:none"
           transform="matrix(1,0,0,-1,142.884,6.40625)"><tspan
             id="tspan184"
             y="0"
             x="0 7.48 13.817888 23.559292 29.906948 36.059292 40.170624 43.349133 49.467499 52.987499 56.166397 62.284374 68.632027 73.842026 77.020538 80.19944 82.977562 89.31546 92.494362 96.41507 100.52639 106.65451 109.43263 115.77053 118.54904 124.88694 131.2346 134.4131 140.76076 146.88889 150.80959">Number of obs. in training data</tspan></text>
</g><path
         id="path188"
         style="fill:#000000;fill-opacity:1;fill-rule:nonzero;stroke:none"
         d="M 540,480.23 H 505" /><path
         id="path190"
         style="fill:none;stroke:#000000;stroke-width:8;stroke-linecap:butt;stroke-linejoin:round;stroke-miterlimit:10;stroke-dasharray:none;stroke-opacity:1"
         d="M 540,480.23 H 505" /><g
         transform="scale(10)"
         id="g192"><text
           id="text196"
           style="font-variant:normal;font-weight:normal;font-size:10px;font-family:Arial;-inkscape-font-specification:Arial;writing-mode:lr-tb;fill:#000000;fill-opacity:1;fill-rule:nonzero;stroke:none"
           transform="matrix(1,0,0,-1,24.7344,44.2262)"><tspan
             id="tspan194"
             y="0"
             x="0 6.3624992 9.5410166 15.903516">0.02</tspan></text>
</g><path
         id="path198"
         style="fill:#000000;fill-opacity:1;fill-rule:nonzero;stroke:none"
         d="M 540,881.266 H 505" /><path
         id="path200"
         style="fill:none;stroke:#000000;stroke-width:8;stroke-linecap:butt;stroke-linejoin:round;stroke-miterlimit:10;stroke-dasharray:none;stroke-opacity:1"
         d="M 540,881.266 H 505" /><g
         transform="scale(10)"
         id="g202"><text
           id="text206"
           style="font-variant:normal;font-weight:normal;font-size:10px;font-family:Arial;-inkscape-font-specification:Arial;writing-mode:lr-tb;fill:#000000;fill-opacity:1;fill-rule:nonzero;stroke:none"
           transform="matrix(1,0,0,-1,24.7344,84.3297)"><tspan
             id="tspan204"
             y="0"
             x="0 6.3624992 9.5410166 15.903516">0.04</tspan></text>
</g><path
         id="path208"
         style="fill:#000000;fill-opacity:1;fill-rule:nonzero;stroke:none"
         d="M 540,1282.3 H 505" /><path
         id="path210"
         style="fill:none;stroke:#000000;stroke-width:8;stroke-linecap:butt;stroke-linejoin:round;stroke-miterlimit:10;stroke-dasharray:none;stroke-opacity:1"
         d="M 540,1282.3 H 505" /><g
         transform="scale(10)"
         id="g212"><text
           id="text216"
           style="font-variant:normal;font-weight:normal;font-size:10px;font-family:Arial;-inkscape-font-specification:Arial;writing-mode:lr-tb;fill:#000000;fill-opacity:1;fill-rule:nonzero;stroke:none"
           transform="matrix(1,0,0,-1,24.7344,124.433)"><tspan
             id="tspan214"
             y="0"
             x="0 6.3624992 9.5410166 15.903516">0.06</tspan></text>
</g><path
         id="path218"
         style="fill:#000000;fill-opacity:1;fill-rule:nonzero;stroke:none"
         d="M 540,1683.33 H 505" /><path
         id="path220"
         style="fill:none;stroke:#000000;stroke-width:8;stroke-linecap:butt;stroke-linejoin:round;stroke-miterlimit:10;stroke-dasharray:none;stroke-opacity:1"
         d="M 540,1683.33 H 505" /><g
         transform="scale(10)"
         id="g222"><text
           id="text226"
           style="font-variant:normal;font-weight:normal;font-size:10px;font-family:Arial;-inkscape-font-specification:Arial;writing-mode:lr-tb;fill:#000000;fill-opacity:1;fill-rule:nonzero;stroke:none"
           transform="matrix(1,0,0,-1,24.7344,164.536)"><tspan
             id="tspan224"
             y="0"
             x="0 6.3624992 9.5410166 15.903516">0.08</tspan></text>
</g><path
         id="path228"
         style="fill:#000000;fill-opacity:1;fill-rule:nonzero;stroke:none"
         d="M 540,2084.36 H 505" /><path
         id="path230"
         style="fill:none;stroke:#000000;stroke-width:8;stroke-linecap:butt;stroke-linejoin:round;stroke-miterlimit:10;stroke-dasharray:none;stroke-opacity:1"
         d="M 540,2084.36 H 505" /><g
         transform="scale(10)"
         id="g232"><text
           id="text236"
           style="font-variant:normal;font-weight:normal;font-size:10px;font-family:Arial;-inkscape-font-specification:Arial;writing-mode:lr-tb;fill:#000000;fill-opacity:1;fill-rule:nonzero;stroke:none"
           transform="matrix(1,0,0,-1,24.7344,204.639)"><tspan
             id="tspan234"
             y="0"
             x="0 6.3624992 9.5410166 15.903516">0.10</tspan></text>
</g><path
         id="path238"
         style="fill:#000000;fill-opacity:1;fill-rule:nonzero;stroke:none"
         d="M 540,2485.39 H 505" /><path
         id="path240"
         style="fill:none;stroke:#000000;stroke-width:8;stroke-linecap:butt;stroke-linejoin:round;stroke-miterlimit:10;stroke-dasharray:none;stroke-opacity:1"
         d="M 540,2485.39 H 505" /><g
         transform="scale(10)"
         id="g242"><text
           id="text246"
           style="font-variant:normal;font-weight:normal;font-size:10px;font-family:Arial;-inkscape-font-specification:Arial;writing-mode:lr-tb;fill:#000000;fill-opacity:1;fill-rule:nonzero;stroke:none"
           transform="matrix(1,0,0,-1,24.7344,244.743)"><tspan
             id="tspan244"
             y="0"
             x="0 6.3624992 9.5410166 15.903516">0.12</tspan></text>
<text
           id="text250"
           style="font-variant:normal;font-weight:normal;font-size:10px;font-family:Arial;-inkscape-font-specification:Arial;writing-mode:lr-tb;fill:#000000;fill-opacity:1;fill-rule:nonzero;stroke:none"
           transform="matrix(0,1,1,0,18.6563,64.5012)"><tspan
             id="tspan248"
             y="0"
             x="0 6.3183579 11.528358 15.44906 18.227577 27.96859 34.096718 38.017426 44.169769 50.517426 53.696327 63.583824 69.711945 74.921944 80.131943 86.284286 90.395615 95.605621 99.526718 105.67906 108.45718 114.79507 117.97397 124.32162 127.09975 132.30975 136.23045 142.35858 148.69647 154.19452">Estimated Wasserstein distance</tspan></text>
</g><g
         id="g252"><g
           clip-path="url(#clipPath258)"
           id="g254"><path
             id="path260"
             style="fill:none;stroke:#000000;stroke-width:15;stroke-linecap:butt;stroke-linejoin:round;stroke-miterlimit:10;stroke-dasharray:55.5, 24;stroke-dashoffset:0;stroke-opacity:1"
             d="M 3735.82,560.992 H 692.184" /><path
             id="path262"
             style="fill:none;stroke:#0000ff;stroke-width:15;stroke-linecap:square;stroke-linejoin:round;stroke-miterlimit:10;stroke-dasharray:none;stroke-opacity:1"
             d="M 3735.82,1291.87 2721.27,1254.24 1706.73,2371.38 692.184,2435.56" /><path
             id="path264"
             style="fill:#0000ff;fill-opacity:1;fill-rule:nonzero;stroke:none"
             d="m 3735.82,1321.87 -6.73,-20.73 h -21.8 l 17.63,-12.81 -6.73,-20.73 17.63,12.81 17.63,-12.81 -6.73,20.73 17.63,12.81 h -21.8" /><path
             id="path266"
             style="fill:none;stroke:#0000ff;stroke-width:10;stroke-linecap:butt;stroke-linejoin:bevel;stroke-miterlimit:10;stroke-dasharray:none;stroke-opacity:1"
             d="m 3735.82,1321.87 -6.73,-20.73 h -21.8 l 17.63,-12.81 -6.73,-20.73 17.63,12.81 17.63,-12.81 -6.73,20.73 17.63,12.81 h -21.8 z" /><path
             id="path268"
             style="fill:#0000ff;fill-opacity:1;fill-rule:nonzero;stroke:none"
             d="m 2721.27,1284.24 -6.73,-20.73 h -21.8 l 17.63,-12.81 -6.73,-20.73 17.63,12.81 17.63,-12.81 -6.73,20.73 17.63,12.81 H 2728" /><path
             id="path270"
             style="fill:none;stroke:#0000ff;stroke-width:10;stroke-linecap:butt;stroke-linejoin:bevel;stroke-miterlimit:10;stroke-dasharray:none;stroke-opacity:1"
             d="m 2721.27,1284.24 -6.73,-20.73 h -21.8 l 17.63,-12.81 -6.73,-20.73 17.63,12.81 17.63,-12.81 -6.73,20.73 17.63,12.81 H 2728 Z" /><path
             id="path272"
             style="fill:#0000ff;fill-opacity:1;fill-rule:nonzero;stroke:none"
             d="m 1706.73,2401.37 -6.73,-20.73 h -21.8 l 17.63,-12.81 -6.73,-20.73 17.63,12.81 17.63,-12.81 -6.73,20.73 17.63,12.81 h -21.8" /><path
             id="path274"
             style="fill:none;stroke:#0000ff;stroke-width:10;stroke-linecap:butt;stroke-linejoin:bevel;stroke-miterlimit:10;stroke-dasharray:none;stroke-opacity:1"
             d="m 1706.73,2401.37 -6.73,-20.73 h -21.8 l 17.63,-12.81 -6.73,-20.73 17.63,12.81 17.63,-12.81 -6.73,20.73 17.63,12.81 h -21.8 z" /><path
             id="path276"
             style="fill:#0000ff;fill-opacity:1;fill-rule:nonzero;stroke:none"
             d="m 692.184,2465.56 -6.739,-20.73 h -21.797 l 17.637,-12.81 -6.738,-20.73 17.637,12.81 17.632,-12.81 -6.734,20.73 17.633,12.81 h -21.797" /><path
             id="path278"
             style="fill:none;stroke:#0000ff;stroke-width:10;stroke-linecap:butt;stroke-linejoin:bevel;stroke-miterlimit:10;stroke-dasharray:none;stroke-opacity:1"
             d="m 692.184,2465.56 -6.739,-20.73 h -21.797 l 17.637,-12.81 -6.738,-20.73 17.637,12.81 17.632,-12.81 -6.734,20.73 17.633,12.81 h -21.797 z" /><path
             id="path280"
             style="fill:none;stroke:#008000;stroke-width:15;stroke-linecap:square;stroke-linejoin:round;stroke-miterlimit:10;stroke-dasharray:none;stroke-opacity:1"
             d="M 3735.82,458.836 2721.27,489.238 1706.73,655.586 692.184,899.566" /><path
             id="path282"
             style="fill:#008000;fill-opacity:1;fill-rule:nonzero;stroke:none"
             d="m 3735.82,488.836 -6.73,-20.731 h -21.8 l 17.63,-12.808 -6.73,-20.731 17.63,12.813 17.63,-12.813 -6.73,20.731 17.63,12.808 h -21.8" /><path
             id="path284"
             style="fill:none;stroke:#008000;stroke-width:10;stroke-linecap:butt;stroke-linejoin:bevel;stroke-miterlimit:10;stroke-dasharray:none;stroke-opacity:1"
             d="m 3735.82,488.836 -6.73,-20.731 h -21.8 l 17.63,-12.808 -6.73,-20.731 17.63,12.813 17.63,-12.813 -6.73,20.731 17.63,12.808 h -21.8 z" /><path
             id="path286"
             style="fill:#008000;fill-opacity:1;fill-rule:nonzero;stroke:none"
             d="m 2721.27,519.238 -6.73,-20.73 h -21.8 l 17.63,-12.809 -6.73,-20.73 17.63,12.812 17.63,-12.812 -6.73,20.73 17.63,12.809 H 2728" /><path
             id="path288"
             style="fill:none;stroke:#008000;stroke-width:10;stroke-linecap:butt;stroke-linejoin:bevel;stroke-miterlimit:10;stroke-dasharray:none;stroke-opacity:1"
             d="m 2721.27,519.238 -6.73,-20.73 h -21.8 l 17.63,-12.809 -6.73,-20.73 17.63,12.812 17.63,-12.812 -6.73,20.73 17.63,12.809 H 2728 Z" /><path
             id="path290"
             style="fill:#008000;fill-opacity:1;fill-rule:nonzero;stroke:none"
             d="M 1706.73,685.59 1700,664.859 h -21.8 l 17.63,-12.812 -6.73,-20.731 17.63,12.813 17.63,-12.813 -6.73,20.731 17.63,12.812 h -21.8" /><path
             id="path292"
             style="fill:none;stroke:#008000;stroke-width:10;stroke-linecap:butt;stroke-linejoin:bevel;stroke-miterlimit:10;stroke-dasharray:none;stroke-opacity:1"
             d="M 1706.73,685.59 1700,664.859 h -21.8 l 17.63,-12.812 -6.73,-20.731 17.63,12.813 17.63,-12.813 -6.73,20.731 17.63,12.812 h -21.8 z" /><path
             id="path294"
             style="fill:#008000;fill-opacity:1;fill-rule:nonzero;stroke:none"
             d="m 692.184,929.566 -6.739,-20.73 h -21.797 l 17.637,-12.813 -6.738,-20.726 17.637,12.808 17.632,-12.808 -6.734,20.726 17.633,12.813 h -21.797" /><path
             id="path296"
             style="fill:none;stroke:#008000;stroke-width:10;stroke-linecap:butt;stroke-linejoin:bevel;stroke-miterlimit:10;stroke-dasharray:none;stroke-opacity:1"
             d="m 692.184,929.566 -6.739,-20.73 h -21.797 l 17.637,-12.813 -6.738,-20.726 17.637,12.808 17.632,-12.808 -6.734,20.726 17.633,12.813 h -21.797 z" /><path
             id="path298"
             style="fill:none;stroke:#008000;stroke-width:15;stroke-linecap:butt;stroke-linejoin:round;stroke-miterlimit:10;stroke-dasharray:55.5, 24;stroke-dashoffset:0;stroke-opacity:1"
             d="m 3735.82,2306.49 -1014.55,51.45 -1014.54,-14.2 -1014.546,71.45" /><path
             id="path300"
             style="fill:#008000;fill-opacity:1;fill-rule:nonzero;stroke:none"
             d="m 3735.82,2336.49 -6.73,-20.73 h -21.8 l 17.63,-12.81 -6.73,-20.73 17.63,12.81 17.63,-12.81 -6.73,20.73 17.63,12.81 h -21.8" /><path
             id="path302"
             style="fill:none;stroke:#008000;stroke-width:10;stroke-linecap:butt;stroke-linejoin:bevel;stroke-miterlimit:10;stroke-dasharray:none;stroke-opacity:1"
             d="m 3735.82,2336.49 -6.73,-20.73 h -21.8 l 17.63,-12.81 -6.73,-20.73 17.63,12.81 17.63,-12.81 -6.73,20.73 17.63,12.81 h -21.8 z" /><path
             id="path304"
             style="fill:#008000;fill-opacity:1;fill-rule:nonzero;stroke:none"
             d="m 2721.27,2387.94 -6.73,-20.73 h -21.8 l 17.63,-12.81 -6.73,-20.73 17.63,12.81 17.63,-12.81 -6.73,20.73 17.63,12.81 H 2728" /><path
             id="path306"
             style="fill:none;stroke:#008000;stroke-width:10;stroke-linecap:butt;stroke-linejoin:bevel;stroke-miterlimit:10;stroke-dasharray:none;stroke-opacity:1"
             d="m 2721.27,2387.94 -6.73,-20.73 h -21.8 l 17.63,-12.81 -6.73,-20.73 17.63,12.81 17.63,-12.81 -6.73,20.73 17.63,12.81 H 2728 Z" /><path
             id="path308"
             style="fill:#008000;fill-opacity:1;fill-rule:nonzero;stroke:none"
             d="m 1706.73,2373.74 -6.73,-20.73 h -21.8 l 17.63,-12.81 -6.73,-20.73 17.63,12.81 17.63,-12.81 -6.73,20.73 17.63,12.81 h -21.8" /><path
             id="path310"
             style="fill:none;stroke:#008000;stroke-width:10;stroke-linecap:butt;stroke-linejoin:bevel;stroke-miterlimit:10;stroke-dasharray:none;stroke-opacity:1"
             d="m 1706.73,2373.74 -6.73,-20.73 h -21.8 l 17.63,-12.81 -6.73,-20.73 17.63,12.81 17.63,-12.81 -6.73,20.73 17.63,12.81 h -21.8 z" /><path
             id="path312"
             style="fill:#008000;fill-opacity:1;fill-rule:nonzero;stroke:none"
             d="m 692.184,2445.19 -6.739,-20.73 h -21.797 l 17.637,-12.81 -6.738,-20.73 17.637,12.81 17.632,-12.81 -6.734,20.73 17.633,12.81 h -21.797" /><path
             id="path314"
             style="fill:none;stroke:#008000;stroke-width:10;stroke-linecap:butt;stroke-linejoin:bevel;stroke-miterlimit:10;stroke-dasharray:none;stroke-opacity:1"
             d="m 692.184,2445.19 -6.739,-20.73 h -21.797 l 17.637,-12.81 -6.738,-20.73 17.637,12.81 17.632,-12.81 -6.734,20.73 17.633,12.81 h -21.797 z" /></g></g><path
         id="path316"
         style="fill:none;stroke:#000000;stroke-width:8;stroke-linecap:square;stroke-linejoin:miter;stroke-miterlimit:10;stroke-dasharray:none;stroke-opacity:1"
         d="M 540,360 V 2534.4" /><path
         id="path318"
         style="fill:none;stroke:#000000;stroke-width:8;stroke-linecap:square;stroke-linejoin:miter;stroke-miterlimit:10;stroke-dasharray:none;stroke-opacity:1"
         d="M 3888,360 V 2534.4" /><path
         id="path320"
         style="fill:none;stroke:#000000;stroke-width:8;stroke-linecap:square;stroke-linejoin:miter;stroke-miterlimit:10;stroke-dasharray:none;stroke-opacity:1"
         d="M 540,360 H 3888" /><path
         id="path322"
         style="fill:none;stroke:#000000;stroke-width:8;stroke-linecap:square;stroke-linejoin:miter;stroke-miterlimit:10;stroke-dasharray:none;stroke-opacity:1"
         d="M 540,2534.4 H 3888" /><path
         id="path324"
         style="fill:#ffffff;fill-opacity:1;fill-rule:nonzero;stroke:none"
         d="m 610,1138.76 h 912.5 c 13.33,0 20,6.67 20,20 v 576.88 c 0,13.33 -6.67,20 -20,20 H 610 c -13.332,0 -20,-6.67 -20,-20 v -576.88 c 0,-13.33 6.668,-20 20,-20" /><path
         id="path326"
         style="fill:none;stroke:#cccccc;stroke-width:10;stroke-linecap:butt;stroke-linejoin:miter;stroke-miterlimit:10;stroke-dasharray:none;stroke-opacity:1"
         d="m 610,1138.76 h 912.5 c 13.33,0 20,6.67 20,20 v 576.88 c 0,13.33 -6.67,20 -20,20 H 610 c -13.332,0 -20,-6.67 -20,-20 v -576.88 c 0,-13.33 6.668,-20 20,-20 z" /><path
         id="path328"
         style="fill:none;stroke:#000000;stroke-width:15;stroke-linecap:butt;stroke-linejoin:round;stroke-miterlimit:10;stroke-dasharray:55.5, 24;stroke-dashoffset:0;stroke-opacity:1"
         d="M 630,1674.7 H 830" /><g
         transform="scale(10)"
         id="g330"><text
           id="text334"
           style="font-variant:normal;font-weight:normal;font-size:10px;font-family:Arial;-inkscape-font-specification:Arial;writing-mode:lr-tb;fill:#000000;fill-opacity:1;fill-rule:nonzero;stroke:none"
           transform="matrix(1,0,0,-1,91,163.97)"><tspan
             id="tspan332"
             y="0"
             x="0 7.52 13.64812 19.986008 26.333664 32.68132 35.459442 40.957489 46.748501 52.900845">Handpicked</tspan></text>
</g><path
         id="path336"
         style="fill:none;stroke:#0000ff;stroke-width:15;stroke-linecap:square;stroke-linejoin:round;stroke-miterlimit:10;stroke-dasharray:none;stroke-opacity:1"
         d="M 630,1527.98 H 830" /><path
         id="path338"
         style="fill:#0000ff;fill-opacity:1;fill-rule:nonzero;stroke:none"
         d="m 730,1557.98 -6.734,-20.73 h -21.797 l 17.633,-12.81 -6.735,-20.73 17.633,12.81 17.633,-12.81 -6.735,20.73 17.633,12.81 h -21.797" /><path
         id="path340"
         style="fill:none;stroke:#0000ff;stroke-width:10;stroke-linecap:butt;stroke-linejoin:bevel;stroke-miterlimit:10;stroke-dasharray:none;stroke-opacity:1"
         d="m 730,1557.98 -6.734,-20.73 h -21.797 l 17.633,-12.81 -6.735,-20.73 17.633,12.81 17.633,-12.81 -6.735,20.73 17.633,12.81 h -21.797 z" /><g
         transform="scale(10)"
         id="g342"><text
           id="text346"
           style="font-variant:normal;font-weight:normal;font-size:10px;font-family:Arial;-inkscape-font-specification:Arial;writing-mode:lr-tb;fill:#000000;fill-opacity:1;fill-rule:nonzero;stroke:none"
           transform="matrix(1,0,0,-1,91,149.298)"><tspan
             id="tspan344"
             y="0"
             x="0 8.6281261 14.199224">MLP</tspan></text>
</g><path
         id="path348"
         style="fill:none;stroke:#008000;stroke-width:15;stroke-linecap:square;stroke-linejoin:round;stroke-miterlimit:10;stroke-dasharray:none;stroke-opacity:1"
         d="M 630,1381.26 H 830" /><path
         id="path350"
         style="fill:#008000;fill-opacity:1;fill-rule:nonzero;stroke:none"
         d="m 730,1411.26 -6.734,-20.73 h -21.797 l 17.633,-12.81 -6.735,-20.73 17.633,12.81 17.633,-12.81 -6.735,20.73 17.633,12.81 h -21.797" /><path
         id="path352"
         style="fill:none;stroke:#008000;stroke-width:10;stroke-linecap:butt;stroke-linejoin:bevel;stroke-miterlimit:10;stroke-dasharray:none;stroke-opacity:1"
         d="m 730,1411.26 -6.734,-20.73 h -21.797 l 17.633,-12.81 -6.735,-20.73 17.633,12.81 17.633,-12.81 -6.735,20.73 17.633,12.81 h -21.797 z" /><g
         transform="scale(10)"
         id="g354"><text
           id="text358"
           style="font-variant:normal;font-weight:normal;font-size:10px;font-family:Arial;-inkscape-font-specification:Arial;writing-mode:lr-tb;fill:#000000;fill-opacity:1;fill-rule:nonzero;stroke:none"
           transform="matrix(1,0,0,-1,91,134.626)"><tspan
             id="tspan356"
             y="0"
             x="0 6.0300002 12.348364 19.828363 23.436569">PEN-2</tspan></text>
</g><path
         id="path360"
         style="fill:none;stroke:#008000;stroke-width:15;stroke-linecap:butt;stroke-linejoin:round;stroke-miterlimit:10;stroke-dasharray:55.5, 24;stroke-dashoffset:0;stroke-opacity:1"
         d="M 630,1234.54 H 830" /><path
         id="path362"
         style="fill:#008000;fill-opacity:1;fill-rule:nonzero;stroke:none"
         d="m 730,1264.54 -6.734,-20.73 h -21.797 l 17.633,-12.81 -6.735,-20.73 17.633,12.81 17.633,-12.81 -6.735,20.73 17.633,12.81 h -21.797" /><path
         id="path364"
         style="fill:none;stroke:#008000;stroke-width:10;stroke-linecap:butt;stroke-linejoin:bevel;stroke-miterlimit:10;stroke-dasharray:none;stroke-opacity:1"
         d="m 730,1264.54 -6.734,-20.73 h -21.797 l 17.633,-12.81 -6.735,-20.73 17.633,12.81 17.633,-12.81 -6.735,20.73 17.633,12.81 h -21.797 z" /><g
         transform="scale(10)"
         id="g366"><text
           id="text370"
           style="font-variant:normal;font-weight:normal;font-size:10px;font-family:Arial;-inkscape-font-specification:Arial;writing-mode:lr-tb;fill:#000000;fill-opacity:1;fill-rule:nonzero;stroke:none"
           transform="matrix(1,0,0,-1,91,119.954)"><tspan
             id="tspan368"
             y="0"
             x="0 6.0300002 12.348364 19.828363 23.436569">PEN-0</tspan></text>
</g></g></g></svg>